# xmcd
#
# Track frame offsets:
#	151
#	9310
#	16273
#	25812
#	37035
#	48242
#	58715
#	67520
#	75127
#	83830
#	91197
#
# Disc length: 1304 seconds
#
# Revision: 1
# Processed by: cddbd v1.5.2PL0 Copyright (c) Steve Scherf et al.
# Submitted via: EasyCDDAExtractor 11.0.3.2
#
DISCID=6905160b
DTITLE=Stringbean - Unforgettable
DYEAR=2004
DGENRE=Country
TTITLE0=Me And My Old Crow (Got A Good Thing Going)
TTITLE1=Shake That Little Foot Sally Ann
TTITLE2=It's Mighty Dark For Me To Travel
TTITLE3=Polly Are You Mad
TTITLE4=Twenty Cent Cotton, Ninety Cent Meat
TTITLE5=Herding Cattle
TTITLE6=Fire On The Mountain
TTITLE7=Going Up Sourwood Mountain
TTITLE8=That's What I Like About The South
TTITLE9=Long Tall Sally
TTITLE10=Nine Pound Hammer
EXTD=
EXTT0=
EXTT1=
EXTT2=
EXTT3=
EXTT4=
EXTT5=
EXTT6=
EXTT7=
EXTT8=
EXTT9=
EXTT10=
PLAYORDER=
